<?xml version="1.0" standalone="no"?>
<!DOCTYPE svg PUBLIC "-//W3C//DTD SVG 20010904//EN"
 "http://www.w3.org/TR/2001/REC-SVG-20010904/DTD/svg10.dtd">
<svg version="1.0" xmlns="http://www.w3.org/2000/svg"
 width="700.000000pt" height="700.000000pt" viewBox="0 0 700.000000 700.000000"
 preserveAspectRatio="xMidYMid meet">
<metadata>
Created by potrace 1.11, written by Peter Selinger 2001-2013
</metadata>
<g transform="translate(0.000000,700.000000) scale(0.100000,-0.100000)"
fill="#000000" stroke="none">
<path d="M3099 6778 c-66 -9 -94 -23 -137 -66 -63 -63 -66 -85 -66 -516 -1
-210 3 -403 7 -430 17 -97 90 -170 186 -185 25 -4 222 -6 436 -6 428 2 426 2
497 64 20 17 46 53 59 79 22 47 22 51 22 462 0 408 0 416 -22 467 -27 62 -51
85 -116 114 -48 21 -61 22 -436 23 -212 1 -406 -2 -430 -6z"/>
<path d="M17 6245 c11 -16 39 -64 62 -105 23 -41 51 -91 63 -110 11 -19 147
-253 301 -520 154 -267 320 -555 370 -640 80 -139 333 -579 377 -655 83 -145
192 -333 200 -345 9 -14 63 -109 100 -175 10 -16 32 -55 50 -85 34 -56 54 -92
91 -157 12 -21 38 -67 59 -103 21 -36 47 -81 58 -100 29 -51 145 -252 251
-433 50 -87 104 -179 118 -205 14 -26 82 -144 151 -262 111 -191 151 -259 221
-382 25 -45 150 -259 161 -278 5 -8 50 -87 101 -175 113 -198 186 -325 199
-345 6 -8 13 -22 17 -30 4 -8 16 -31 28 -50 12 -19 33 -55 47 -80 14 -25 49
-85 78 -135 29 -49 61 -106 72 -125 11 -19 78 -135 149 -257 71 -122 134 -233
141 -247 9 -20 14 -23 25 -15 7 6 13 15 13 20 0 5 15 32 33 61 19 29 45 73 59
98 14 25 51 90 83 145 32 55 110 190 173 300 63 110 126 217 139 237 12 21 23
40 23 44 0 3 8 18 19 32 10 15 29 47 43 72 14 25 69 122 123 215 94 163 141
244 254 438 28 49 51 91 51 93 0 2 12 23 27 47 14 23 100 170 191 327 177 307
222 385 289 498 24 40 43 75 43 77 0 2 25 45 55 96 30 50 55 93 55 94 0 1 30
54 66 116 79 136 68 116 234 404 73 127 173 300 223 385 112 193 122 211 164
285 19 33 42 74 52 90 14 23 391 676 567 982 11 18 57 98 104 179 47 81 97
168 111 194 15 25 38 65 53 88 14 23 26 44 26 47 0 2 19 35 41 72 23 38 58 97
77 133 19 36 40 72 46 80 17 23 46 77 46 87 0 4 -4 3 -8 -2 -8 -12 -499 -440
-636 -556 -16 -13 -34 -29 -40 -35 -6 -5 -65 -57 -131 -114 -66 -56 -125 -108
-130 -114 -6 -6 -39 -36 -75 -66 -85 -72 -118 -101 -145 -125 -13 -11 -49 -42
-81 -70 -32 -27 -77 -66 -99 -86 -22 -20 -55 -49 -74 -65 -19 -16 -39 -33 -45
-39 -6 -5 -40 -35 -76 -65 -35 -30 -71 -62 -80 -70 -9 -8 -42 -37 -74 -65 -89
-76 -99 -84 -131 -113 -16 -15 -79 -70 -140 -121 -60 -52 -117 -102 -126 -110
-8 -9 -40 -36 -69 -61 -29 -25 -58 -50 -64 -55 -10 -9 -274 -238 -340 -295
-16 -14 -48 -41 -70 -62 -34 -29 -240 -209 -417 -362 -20 -17 -98 -85 -174
-151 -77 -66 -166 -144 -199 -172 -34 -29 -63 -53 -66 -53 -3 0 -84 68 -180
152 -96 83 -201 174 -234 202 -32 28 -64 56 -70 61 -6 6 -58 51 -116 100 -58
50 -107 93 -110 96 -4 5 -481 420 -574 499 -16 14 -34 30 -40 35 -6 6 -60 53
-121 105 -99 86 -157 137 -189 165 -6 6 -43 37 -81 70 -39 33 -75 64 -81 70
-31 28 -143 126 -174 151 -19 16 -37 31 -40 34 -3 4 -79 71 -170 149 -91 79
-179 155 -195 170 -17 14 -62 53 -100 86 -39 33 -72 62 -75 65 -3 3 -57 50
-120 105 -63 55 -117 102 -120 105 -3 3 -34 30 -70 60 -36 30 -70 59 -76 65
-6 5 -39 35 -74 65 -35 30 -68 60 -74 65 -6 6 -58 50 -116 100 -58 49 -107 92
-110 95 -13 13 -157 137 -175 150 -18 14 -18 13 2 -15z"/>
</g>
</svg>
